STARTFONT 2.1
COMMENT $XConsortium: luIS19.bdf,v 1.3 94/04/02 15:59:56 gildea Exp $
COMMENT  (c) Copyright Bigelow & Holmes 1986, 1985. Lucida is a registered
COMMENT  trademark of Bigelow & Holmes. See LEGAL NOTICE file for terms 
COMMENT  of the license. 
COMMENT  
COMMENT  Translation to ISO8859-2 by Cub Soft;  Petr.Kolar@vslib.cz
COMMENT  
FONT -B&H-Lucida-Medium-I-Normal-Sans-19-190-75-75-P-108-ISO8859-2
SIZE 19 72 72
FONTBOUNDINGBOX 34 22 -11 -4
STARTPROPERTIES 20
COMMENT Begin LogicalFontDescription
FONTNAME_REGISTRY ""
FOUNDRY "B&H"
FAMILY_NAME "Lucida"
WEIGHT_NAME "Medium"
SLANT "I"
SETWIDTH_NAME "Normal"
ADD_STYLE_NAME "Sans"
PIXEL_SIZE 19
POINT_SIZE 190
RESOLUTION_X 75
RESOLUTION_Y 75
SPACING "P"
AVERAGE_WIDTH "108"
CHARSET_REGISTRY "ISO8859"
CHARSET_ENCODING "2"
COMMENT END LogicalFontDescription
COPYRIGHT "Copyright Bigelow & Holmes 1986, 1985., Copyright 1996 Cub Soft"
FONT_ASCENT 17
FONT_DESCENT 4
DEFAULT_CHAR 0
FACE_NAME "Lucida Sans Italic"
ENDPROPERTIES
CHARS 191
STARTCHAR space
ENCODING 32
SWIDTH 316 0
DWIDTH 6 0
BBX 1 1 0 0
BITMAP
00
ENDCHAR
STARTCHAR exclam
ENCODING 33
SWIDTH 193 0
DWIDTH 6 0
BBX 5 14 2 0
BITMAP
18
18
10
30
30
30
30
20
60
60
00
00
c0
c0
ENDCHAR
STARTCHAR quotedbl
ENCODING 34
SWIDTH 361 0
DWIDTH 7 0
BBX 5 5 3 9
BITMAP
d8
d8
d8
d8
d8
ENDCHAR
STARTCHAR numbersign
ENCODING 35
SWIDTH 633 0
DWIDTH 12 0
BBX 12 14 1 0
BITMAP
0130
0270
0260
04e0
7ff0
7ff0
0880
1980
1100
ffe0
ffe0
2600
6e00
dc00
ENDCHAR
STARTCHAR dollar
ENCODING 36
SWIDTH 633 0
DWIDTH 12 0
BBX 9 17 3 -2
BITMAP
0200
1f80
3f80
3400
2400
2400
1800
0800
0c00
0e00
0b00
1300
1300
f600
fc00
1000
1000
ENDCHAR
STARTCHAR percent
ENCODING 37
SWIDTH 741 0
DWIDTH 14 0
BBX 14 14 2 0
BITMAP
1c0c
3e10
6220
6660
7cc0
3980
03e0
03f0
0590
0910
1b10
3330
61e0
c1c0
ENDCHAR
STARTCHAR ampersand
ENCODING 38
SWIDTH 701 0
DWIDTH 13 0
BBX 12 14 2 0
BITMAP
0380
07c0
0c40
0c40
0dc0
0f00
3e00
6630
c330
c360
c1e0
e1c0
7fc0
3ce0
ENDCHAR
STARTCHAR apostrophe
ENCODING 39
SWIDTH 217 0
DWIDTH 4 0
BBX 3 5 3 9
BITMAP
60
60
60
60
c0
ENDCHAR
STARTCHAR parenleft
ENCODING 40
SWIDTH 325 0
DWIDTH 6 0
BBX 6 18 2 -4
BITMAP
04
0c
18
10
30
60
60
40
c0
c0
c0
c0
c0
c0
c0
60
60
20
ENDCHAR
STARTCHAR parenright
ENCODING 41
SWIDTH 325 0
DWIDTH 6 0
BBX 6 18 0 -4
BITMAP
10
18
0c
0c
0c
04
04
04
0c
0c
0c
08
18
10
30
60
c0
80
ENDCHAR
STARTCHAR asterisk
ENCODING 42
SWIDTH 470 0
DWIDTH 9 0
BBX 7 7 3 7
BITMAP
18
10
d6
6c
30
c8
48
ENDCHAR
STARTCHAR plus
ENCODING 43
SWIDTH 633 0
DWIDTH 12 0
BBX 11 12 2 0
BITMAP
0700
0600
0600
0600
0600
ffe0
ffe0
0c00
0c00
0c00
0c00
1c00
ENDCHAR
STARTCHAR comma
ENCODING 44
SWIDTH 316 0
DWIDTH 6 0
BBX 3 7 1 -4
BITMAP
60
60
60
60
40
40
80
ENDCHAR
STARTCHAR minus
ENCODING 45
SWIDTH 633 0
DWIDTH 12 0
BBX 11 2 2 5
BITMAP
ffe0
ffe0
ENDCHAR
STARTCHAR period
ENCODING 46
SWIDTH 316 0
DWIDTH 6 0
BBX 3 2 2 0
BITMAP
e0
c0
ENDCHAR
STARTCHAR slash
ENCODING 47
SWIDTH 482 0
DWIDTH 9 0
BBX 12 18 0 -4
BITMAP
0030
0020
0060
00c0
0080
0180
0100
0300
0200
0400
0c00
0800
1800
1000
3000
6000
4000
c000
ENDCHAR
STARTCHAR zero
ENCODING 48
SWIDTH 633 0
DWIDTH 12 0
BBX 10 14 2 0
BITMAP
0f00
1f80
39c0
30c0
60c0
60c0
c0c0
c0c0
c080
c180
c180
e300
7e00
3c00
ENDCHAR
STARTCHAR one
ENCODING 49
SWIDTH 633 0
DWIDTH 12 0
BBX 5 14 5 0
BITMAP
78
f8
10
30
30
30
30
60
60
60
60
60
c0
c0
ENDCHAR
STARTCHAR two
ENCODING 50
SWIDTH 633 0
DWIDTH 12 0
BBX 11 14 2 0
BITMAP
0f80
1fe0
10e0
0060
0060
00c0
0180
0300
0e00
1800
3000
6000
ff80
ff80
ENDCHAR
STARTCHAR three
ENCODING 51
SWIDTH 633 0
DWIDTH 12 0
BBX 10 14 2 0
BITMAP
1f00
1f80
11c0
0080
0180
0300
1c00
3f00
0380
0180
0180
8300
fe00
fc00
ENDCHAR
STARTCHAR four
ENCODING 52
SWIDTH 633 0
DWIDTH 12 0
BBX 10 14 2 0
BITMAP
01c0
01c0
0380
0680
0d80
1980
3180
2100
4100
ffc0
ffc0
0300
0300
0600
ENDCHAR
STARTCHAR five
ENCODING 53
SWIDTH 633 0
DWIDTH 12 0
BBX 10 14 3 0
BITMAP
1fc0
1fc0
3000
3000
2000
3c00
3f00
0300
0180
0180
0300
8700
fe00
f800
ENDCHAR
STARTCHAR six
ENCODING 54
SWIDTH 633 0
DWIDTH 12 0
BBX 10 14 2 0
BITMAP
07c0
1fc0
3840
3000
6000
7f00
ff80
e180
c180
c180
c180
e300
7e00
3c00
ENDCHAR
STARTCHAR seven
ENCODING 55
SWIDTH 633 0
DWIDTH 12 0
BBX 11 14 3 0
BITMAP
3fe0
3fe0
00e0
01c0
0380
0700
0e00
1c00
3800
3000
7000
6000
e000
c000
ENDCHAR
STARTCHAR eight
ENCODING 56
SWIDTH 633 0
DWIDTH 12 0
BBX 10 14 3 0
BITMAP
0f00
1f80
30c0
3080
3180
3b00
3e00
7f00
6300
c180
c180
e300
ff00
3c00
ENDCHAR
STARTCHAR nine
ENCODING 57
SWIDTH 633 0
DWIDTH 12 0
BBX 10 14 2 0
BITMAP
0f00
1f80
38c0
60c0
60c0
60c0
61c0
7fc0
3ec0
0180
0380
8700
fe00
7800
ENDCHAR
STARTCHAR colon
ENCODING 58
SWIDTH 316 0
DWIDTH 6 0
BBX 4 10 2 0
BITMAP
30
30
00
00
00
00
00
00
c0
c0
ENDCHAR
STARTCHAR semicolon
ENCODING 59
SWIDTH 316 0
DWIDTH 6 0
BBX 4 14 2 -4
BITMAP
30
30
00
00
00
00
00
00
60
40
40
40
40
80
ENDCHAR
STARTCHAR less
ENCODING 60
SWIDTH 633 0
DWIDTH 12 0
BBX 12 12 2 0
BITMAP
0010
0070
01c0
0700
1c00
7000
f000
3c00
1e00
0780
01c0
00c0
ENDCHAR
STARTCHAR equal
ENCODING 61
SWIDTH 633 0
DWIDTH 12 0
BBX 12 5 1 3
BITMAP
7ff0
7ff0
0000
ffe0
ffe0
ENDCHAR
STARTCHAR greater
ENCODING 62
SWIDTH 633 0
DWIDTH 12 0
BBX 12 12 1 0
BITMAP
3000
3800
1e00
0700
03c0
00f0
00e0
0380
0e00
3800
e000
8000
ENDCHAR
STARTCHAR question
ENCODING 63
SWIDTH 464 0
DWIDTH 9 0
BBX 8 14 3 0
BITMAP
7c
7e
87
03
06
0c
18
30
60
60
60
00
c0
c0
ENDCHAR
STARTCHAR at
ENCODING 64
SWIDTH 858 0
DWIDTH 16 0
BBX 14 14 2 0
BITMAP
03e0
0ff8
1c1c
33e4
67e4
4c44
8844
91c4
998c
9ef8
ccf0
6080
3f80
1f00
ENDCHAR
STARTCHAR A
ENCODING 65
SWIDTH 687 0
DWIDTH 13 0
BBX 13 14 0 0
BITMAP
00c0
01e0
01e0
0360
0260
0660
0c70
0c30
1830
1ff0
3ff0
2038
6018
c018
ENDCHAR
STARTCHAR B
ENCODING 66
SWIDTH 593 0
DWIDTH 11 0
BBX 10 14 2 0
BITMAP
1f80
3fc0
30c0
30c0
3080
3380
7e00
7f00
6380
6180
6180
c380
ff00
fe00
ENDCHAR
STARTCHAR C
ENCODING 67
SWIDTH 679 0
DWIDTH 13 0
BBX 13 14 2 0
BITMAP
03f0
0ff8
1c08
3800
7000
6000
e000
c000
c000
c000
c000
6020
7fe0
1f00
ENDCHAR
STARTCHAR D
ENCODING 68
SWIDTH 743 0
DWIDTH 14 0
BBX 13 14 2 0
BITMAP
1fe0
3ff0
3078
3018
3018
3018
6018
6018
6030
6030
6060
c1e0
ffc0
ff00
ENDCHAR
STARTCHAR E
ENCODING 69
SWIDTH 547 0
DWIDTH 10 0
BBX 10 14 2 0
BITMAP
1fc0
3fc0
3000
3000
3000
2000
7f00
7f00
6000
6000
6000
c000
ff00
ff00
ENDCHAR
STARTCHAR F
ENCODING 70
SWIDTH 536 0
DWIDTH 10 0
BBX 10 14 2 0
BITMAP
1fc0
3fc0
3000
3000
3000
2000
7f00
7f00
6000
6000
6000
c000
c000
c000
ENDCHAR
STARTCHAR G
ENCODING 71
SWIDTH 702 0
DWIDTH 13 0
BBX 12 14 2 0
BITMAP
07e0
0ff0
3c10
3000
6000
6000
c000
c060
c060
c0c0
e0c0
70c0
7fc0
1f00
ENDCHAR
STARTCHAR H
ENCODING 72
SWIDTH 735 0
DWIDTH 14 0
BBX 13 14 2 0
BITMAP
1818
3018
3018
3030
3030
3030
7ff0
7ff0
6020
6060
6060
c060
c060
c0c0
ENDCHAR
STARTCHAR I
ENCODING 73
SWIDTH 289 0
DWIDTH 5 0
BBX 5 14 2 0
BITMAP
18
18
10
30
30
30
30
60
60
60
60
40
c0
c0
ENDCHAR
STARTCHAR J
ENCODING 74
SWIDTH 408 0
DWIDTH 8 0
BBX 9 18 0 -4
BITMAP
0180
0180
0180
0300
0300
0300
0300
0300
0200
0600
0600
0600
0600
0600
0c00
0c00
f800
f000
ENDCHAR
STARTCHAR K
ENCODING 75
SWIDTH 635 0
DWIDTH 12 0
BBX 12 14 2 0
BITMAP
1830
3060
30c0
3180
3300
3600
6c00
7c00
6e00
6600
6300
c380
c180
c0c0
ENDCHAR
STARTCHAR L
ENCODING 76
SWIDTH 545 0
DWIDTH 10 0
BBX 9 14 2 0
BITMAP
1800
1800
3000
3000
3000
3000
2000
6000
6000
6000
6000
4000
ff80
ff80
ENDCHAR
STARTCHAR M
ENCODING 77
SWIDTH 828 0
DWIDTH 16 0
BBX 15 14 2 0
BITMAP
180e
3c0e
3c1e
3c1c
3c3c
2c6c
644c
66cc
6688
6798
4718
c718
c618
c030
ENDCHAR
STARTCHAR N
ENCODING 78
SWIDTH 741 0
DWIDTH 14 0
BBX 13 14 2 0
BITMAP
1818
3818
3c18
3c10
2c30
2630
6630
6330
6320
61a0
41e0
c1e0
c0e0
c0c0
ENDCHAR
STARTCHAR O
ENCODING 79
SWIDTH 777 0
DWIDTH 15 0
BBX 13 14 2 0
BITMAP
03e0
0ff0
1c38
3018
7018
6018
c018
c018
c018
c030
e070
60e0
7fc0
1f00
ENDCHAR
STARTCHAR P
ENCODING 80
SWIDTH 575 0
DWIDTH 11 0
BBX 10 14 2 0
BITMAP
1f80
3fc0
30c0
30c0
30c0
2180
6380
7f00
7c00
6000
6000
c000
c000
c000
ENDCHAR
STARTCHAR Q
ENCODING 81
SWIDTH 777 0
DWIDTH 15 0
BBX 13 18 2 -4
BITMAP
03e0
0ff0
1c38
3018
7018
6018
c018
c018
c018
c030
e070
60e0
7fc0
1f00
01c0
00f0
0078
0030
ENDCHAR
STARTCHAR R
ENCODING 82
SWIDTH 632 0
DWIDTH 12 0
BBX 10 14 2 0
BITMAP
1f80
3fc0
30c0
30c0
30c0
3180
6300
7c00
7e00
6600
6300
c300
c180
c1c0
ENDCHAR
STARTCHAR S
ENCODING 83
SWIDTH 553 0
DWIDTH 11 0
BBX 11 14 1 0
BITMAP
0fc0
1fe0
3840
3000
3000
1800
0e00
0700
0380
0180
0180
8380
ff00
3e00
ENDCHAR
STARTCHAR T
ENCODING 84
SWIDTH 623 0
DWIDTH 12 0
BBX 12 14 3 0
BITMAP
fff0
fff0
0600
0600
0c00
0c00
0c00
0c00
0800
1800
1800
1800
1800
3000
ENDCHAR
STARTCHAR U
ENCODING 85
SWIDTH 693 0
DWIDTH 13 0
BBX 12 14 2 0
BITMAP
3030
3030
6030
6020
6060
6060
6060
c060
c0c0
c0c0
c0c0
e180
ff80
7e00
ENDCHAR
STARTCHAR V
ENCODING 86
SWIDTH 687 0
DWIDTH 13 0
BBX 12 14 3 0
BITMAP
c030
c060
c060
60c0
60c0
6180
6180
6300
3200
3600
3c00
3c00
3800
3800
ENDCHAR
STARTCHAR W
ENCODING 87
SWIDTH 886 0
DWIDTH 17 0
BBX 16 14 3 0
BITMAP
c183
c182
c386
c384
c78c
c58c
cd98
c998
d9b0
59b0
50e0
70e0
60c0
60c0
ENDCHAR
STARTCHAR X
ENCODING 88
SWIDTH 620 0
DWIDTH 12 0
BBX 14 14 0 0
BITMAP
181c
0c18
0c30
0660
06c0
0380
0300
0380
0780
0dc0
18c0
30e0
6060
c070
ENDCHAR
STARTCHAR Y
ENCODING 89
SWIDTH 608 0
DWIDTH 12 0
BBX 11 14 3 0
BITMAP
c0e0
60c0
6180
7380
3700
3600
1c00
1800
1800
1800
1800
3000
3000
3000
ENDCHAR
STARTCHAR Z
ENCODING 90
SWIDTH 578 0
DWIDTH 11 0
BBX 12 14 1 0
BITMAP
1ff0
1ff0
0060
00c0
0180
0300
0700
0e00
1c00
1800
3000
6000
ffc0
ffc0
ENDCHAR
STARTCHAR bracketleft
ENCODING 91
SWIDTH 325 0
DWIDTH 6 0
BBX 7 18 1 -4
BITMAP
1e
1e
18
10
10
30
30
30
20
20
60
60
60
40
40
c0
f0
f0
ENDCHAR
STARTCHAR backslash
ENCODING 92
SWIDTH 482 0
DWIDTH 9 0
BBX 5 18 3 -4
BITMAP
80
c0
c0
40
40
60
60
60
20
20
30
30
30
10
10
18
18
08
ENDCHAR
STARTCHAR bracketright
ENCODING 93
SWIDTH 325 0
DWIDTH 6 0
BBX 7 18 0 -4
BITMAP
1e
1e
06
04
04
0c
0c
0c
08
08
18
18
18
10
10
30
f0
f0
ENDCHAR
STARTCHAR asciicircum
ENCODING 94
SWIDTH 633 0
DWIDTH 12 0
BBX 11 12 1 2
BITMAP
0100
0300
0300
0780
0f80
0c80
1c80
18c0
3040
7040
6060
c060
ENDCHAR
STARTCHAR underscore
ENCODING 95
SWIDTH 500 0
DWIDTH 10 0
BBX 8 2 1 -2
BITMAP
ff
ff
ENDCHAR
STARTCHAR grave
ENCODING 96
SWIDTH 572 0
DWIDTH 11 0
BBX 3 3 6 11
BITMAP
c0
40
60
ENDCHAR
STARTCHAR a
ENCODING 97
SWIDTH 608 0
DWIDTH 12 0
BBX 10 10 2 0
BITMAP
0fc0
1fc0
38c0
7180
6180
c380
c780
cf80
fd00
7300
ENDCHAR
STARTCHAR b
ENCODING 98
SWIDTH 608 0
DWIDTH 12 0
BBX 10 14 2 0
BITMAP
1800
1000
3000
3000
3380
2fc0
3cc0
78c0
70c0
6180
6380
4700
fe00
fc00
ENDCHAR
STARTCHAR c
ENCODING 99
SWIDTH 503 0
DWIDTH 10 0
BBX 9 10 2 0
BITMAP
0f80
3f00
7000
6000
c000
c000
c000
c200
fe00
7c00
ENDCHAR
STARTCHAR d
ENCODING 100
SWIDTH 608 0
DWIDTH 12 0
BBX 11 14 2 0
BITMAP
0060
0060
0040
00c0
07c0
1fc0
38c0
7080
6180
c380
c780
cf80
fd00
7300
ENDCHAR
STARTCHAR e
ENCODING 101
SWIDTH 529 0
DWIDTH 10 0
BBX 8 10 2 0
BITMAP
0f
3f
73
63
c6
f8
c1
c3
ff
7c
ENDCHAR
STARTCHAR f
ENCODING 102
SWIDTH 383 0
DWIDTH 7 0
BBX 9 19 2 -4
BITMAP
0780
0f80
1c00
1800
1800
7e00
7e00
3000
3000
3000
2000
6000
6000
6000
6000
6000
c000
c000
c000
ENDCHAR
STARTCHAR g
ENCODING 103
SWIDTH 608 0
DWIDTH 12 0
BBX 11 14 1 -4
BITMAP
07e0
0fe0
1c40
3040
30c0
61c0
62c0
6680
7d80
3980
0180
8300
fe00
7c00
ENDCHAR
STARTCHAR h
ENCODING 104
SWIDTH 620 0
DWIDTH 12 0
BBX 10 14 2 0
BITMAP
1800
1000
3000
3000
3380
37c0
2ec0
7cc0
78c0
7080
6180
4180
c180
c180
ENDCHAR
STARTCHAR i
ENCODING 105
SWIDTH 289 0
DWIDTH 5 0
BBX 5 14 2 0
BITMAP
18
18
00
00
30
30
30
60
60
60
60
40
c0
c0
ENDCHAR
STARTCHAR j
ENCODING 106
SWIDTH 325 0
DWIDTH 6 0
BBX 9 18 -1 -4
BITMAP
0180
0180
0000
0000
0300
0300
0300
0300
0200
0600
0600
0600
0600
0400
0c00
1c00
f800
f000
ENDCHAR
STARTCHAR k
ENCODING 107
SWIDTH 572 0
DWIDTH 11 0
BBX 10 14 2 0
BITMAP
1800
1000
3000
3000
31c0
3300
2600
6c00
7800
6c00
6c00
4600
c300
c380
ENDCHAR
STARTCHAR l
ENCODING 108
SWIDTH 289 0
DWIDTH 5 0
BBX 5 14 2 0
BITMAP
18
18
10
30
30
30
30
60
60
60
60
40
c0
c0
ENDCHAR
STARTCHAR m
ENCODING 109
SWIDTH 934 0
DWIDTH 18 0
BBX 16 10 2 0
BITMAP
338f
37df
6efb
7cf3
79e3
71c2
6186
e186
c106
c304
ENDCHAR
STARTCHAR n
ENCODING 110
SWIDTH 620 0
DWIDTH 12 0
BBX 10 10 2 0
BITMAP
3380
37c0
2ec0
7cc0
78c0
7080
6180
4180
c180
c180
ENDCHAR
STARTCHAR o
ENCODING 111
SWIDTH 566 0
DWIDTH 11 0
BBX 9 10 2 0
BITMAP
0f00
3f80
7180
6180
c180
c180
c180
c700
fe00
7c00
ENDCHAR
STARTCHAR p
ENCODING 112
SWIDTH 608 0
DWIDTH 12 0
BBX 11 14 1 -4
BITMAP
19c0
37e0
3e60
3c60
3860
30c0
61c0
6380
7f00
7c00
6000
c000
c000
c000
ENDCHAR
STARTCHAR q
ENCODING 113
SWIDTH 608 0
DWIDTH 12 0
BBX 10 14 2 -4
BITMAP
0fc0
1fc0
38c0
7180
6180
c380
c780
cf80
fd00
7300
0300
0300
0300
0600
ENDCHAR
STARTCHAR r
ENCODING 114
SWIDTH 478 0
DWIDTH 9 0
BBX 9 10 2 0
BITMAP
3180
3780
2c00
7800
7800
7000
6000
4000
c000
c000
ENDCHAR
STARTCHAR s
ENCODING 115
SWIDTH 489 0
DWIDTH 9 0
BBX 8 10 2 0
BITMAP
1e
3f
31
30
18
0c
06
86
fe
7c
ENDCHAR
STARTCHAR t
ENCODING 116
SWIDTH 383 0
DWIDTH 7 0
BBX 6 13 2 0
BITMAP
30
30
30
fc
fc
60
60
60
60
40
c0
f0
70
ENDCHAR
STARTCHAR u
ENCODING 117
SWIDTH 620 0
DWIDTH 12 0
BBX 10 10 2 0
BITMAP
70c0
60c0
6080
6180
6380
c780
cf80
dd00
fb00
7300
ENDCHAR
STARTCHAR v
ENCODING 118
SWIDTH 545 0
DWIDTH 10 0
BBX 9 10 3 0
BITMAP
c180
c300
c300
c600
4400
4c00
6800
7800
7000
6000
ENDCHAR
STARTCHAR w
ENCODING 119
SWIDTH 795 0
DWIDTH 15 0
BBX 14 10 2 0
BITMAP
c30c
c71c
c718
cd30
cd30
d960
5960
71c0
71c0
6180
ENDCHAR
STARTCHAR x
ENCODING 120
SWIDTH 541 0
DWIDTH 10 0
BBX 11 10 1 0
BITMAP
3060
18c0
0980
0f00
0600
0e00
1b00
3300
6180
c180
ENDCHAR
STARTCHAR y
ENCODING 121
SWIDTH 548 0
DWIDTH 10 0
BBX 10 14 2 -4
BITMAP
60c0
6180
6180
6300
6700
6600
3e00
3c00
3800
3800
3000
3000
6000
c000
ENDCHAR
STARTCHAR z
ENCODING 122
SWIDTH 536 0
DWIDTH 10 0
BBX 10 10 1 0
BITMAP
3fc0
3fc0
0380
0700
0e00
1c00
3800
7000
ff80
ff80
ENDCHAR
STARTCHAR braceleft
ENCODING 123
SWIDTH 325 0
DWIDTH 6 0
BBX 7 18 2 -4
BITMAP
0e
1c
18
10
10
10
30
30
e0
c0
60
60
60
60
c0
c0
e0
60
ENDCHAR
STARTCHAR bar
ENCODING 124
SWIDTH 233 0
DWIDTH 4 0
BBX 5 18 1 -4
BITMAP
08
18
10
10
10
10
30
20
20
20
20
60
40
40
40
40
c0
80
ENDCHAR
STARTCHAR braceright
ENCODING 125
SWIDTH 325 0
DWIDTH 6 0
BBX 7 18 0 -4
BITMAP
18
1c
04
0c
0c
08
18
08
0e
1c
18
30
30
30
30
30
e0
e0
ENDCHAR
STARTCHAR asciitilde
ENCODING 126
SWIDTH 633 0
DWIDTH 12 0
BBX 12 5 1 3
BITMAP
3810
7c30
4f20
c3e0
81c0
ENDCHAR
STARTCHAR nobreakspace
ENCODING 160
SWIDTH 316 0
DWIDTH 6 0
BBX 1 1 0 0
BITMAP
00
ENDCHAR
STARTCHAR Aogonek
ENCODING 161
SWIDTH 687 0
DWIDTH 13 0
BBX 13 17 0 -3
BITMAP
00c0
01e0
01e0
0360
0260
0660
0c70
0c30
1830
1ff0
3ff0
2038
6018
c018
0300
0400
0700
ENDCHAR
STARTCHAR breve
ENCODING 162
SWIDTH 566 0
DWIDTH 11 0
BBX 6 3 6 11
BITMAP
84
c8
70
ENDCHAR
STARTCHAR Lstroke
ENCODING 163
SWIDTH 545 0
DWIDTH 10 0
BBX 10 14 1 0
BITMAP
0c00
0c00
1800
1800
1a00
1e00
3800
f000
b000
3000
3000
3000
7fc0
7fc0
ENDCHAR
STARTCHAR currency
ENCODING 164
SWIDTH 633 0
DWIDTH 12 0
BBX 13 12 1 1
BITMAP
3018
3f38
1ff0
0ce0
1860
1060
1060
1040
18c0
3fc0
4f60
8020
ENDCHAR
STARTCHAR Lcaron
ENCODING 165
SWIDTH 545 0
DWIDTH 10 0
BBX 9 15 2 0
BITMAP
0180
1980
1980
3180
3300
3000
3000
2000
6000
6000
6000
6000
4000
ff80
ff80
ENDCHAR
STARTCHAR Sacute
ENCODING 166
SWIDTH 553 0
DWIDTH 11 0
BBX 11 18 1 0
BITMAP
00e0
0180
0300
0000
0fc0
1fe0
3840
3000
3000
1800
0e00
0700
0380
0180
0180
8380
ff00
3e00
ENDCHAR
STARTCHAR section
ENCODING 167
SWIDTH 633 0
DWIDTH 12 0
BBX 10 18 2 -4
BITMAP
07c0
1fc0
1840
3000
3000
1800
3e00
3380
6180
6080
3980
1f00
0700
0100
0100
8300
ff00
7c00
ENDCHAR
STARTCHAR diaeresis
ENCODING 168
SWIDTH 566 0
DWIDTH 11 0
BBX 6 2 5 12
BITMAP
cc
cc
ENDCHAR
STARTCHAR Scaron
ENCODING 169
SWIDTH 553 0
DWIDTH 11 0
BBX 11 18 1 0
BITMAP
0cc0
0580
0700
0000
0fc0
1fe0
3840
3000
3000
1800
0e00
0700
0380
0180
0180
8380
ff00
3e00
ENDCHAR
STARTCHAR Scedilla
ENCODING 170
SWIDTH 553 0
DWIDTH 11 0
BBX 11 18 1 -4
BITMAP
0fc0
1fe0
3840
3000
3000
1800
0e00
0700
0380
0180
0180
8380
ff00
3e00
0600
0600
0200
0c00
ENDCHAR
STARTCHAR Tcaron
ENCODING 171
SWIDTH 623 0
DWIDTH 12 0
BBX 12 18 3 0
BITMAP
0cc0
0580
0700
0000
fff0
fff0
0600
0600
0c00
0c00
0c00
0c00
0800
1800
1800
1800
1800
3000
ENDCHAR
STARTCHAR Zacute
ENCODING 172
SWIDTH 578 0
DWIDTH 11 0
BBX 12 18 1 0
BITMAP
0070
00c0
0180
0000
1ff0
1ff0
0060
00c0
0180
0300
0700
0e00
1c00
1800
3000
6000
ffc0
ffc0
ENDCHAR
STARTCHAR hyphen
ENCODING 173
SWIDTH 313 0
DWIDTH 6 0
BBX 4 2 2 5
BITMAP
f0
f0
ENDCHAR
STARTCHAR Zcaron
ENCODING 174
SWIDTH 578 0
DWIDTH 11 0
BBX 12 18 1 0
BITMAP
0660
02c0
0380
0000
1ff0
1ff0
0060
00c0
0180
0300
0700
0e00
1c00
1800
3000
6000
ffc0
ffc0
ENDCHAR
STARTCHAR Zabovedot
ENCODING 175
SWIDTH 578 0
DWIDTH 11 0
BBX 12 17 1 0
BITMAP
0180
0180
0000
1ff0
1ff0
0060
00c0
0180
0300
0700
0e00
1c00
1800
3000
6000
ffc0
ffc0
ENDCHAR
STARTCHAR degree
ENCODING 176
SWIDTH 269 0
DWIDTH 5 0
BBX 3 4 3 10
BITMAP
60
a0
a0
60
ENDCHAR
STARTCHAR aogonek
ENCODING 177
SWIDTH 608 0
DWIDTH 12 0
BBX 10 13 2 -3
BITMAP
0fc0
1fc0
38c0
7180
6180
c380
c780
cf80
fd00
7300
0c00
1000
1c00
ENDCHAR
STARTCHAR ogonek
ENCODING 178
SWIDTH 566 0
DWIDTH 11 0
BBX 3 3 3 -4
BITMAP
60
80
e0
ENDCHAR
STARTCHAR lstroke
ENCODING 179
SWIDTH 289 0
DWIDTH 5 0
BBX 7 14 1 0
BITMAP
0c
08
18
18
1a
1e
38
70
b0
30
30
20
60
60
ENDCHAR
STARTCHAR acute
ENCODING 180
SWIDTH 566 0
DWIDTH 11 0
BBX 5 3 7 11
BITMAP
38
60
c0
ENDCHAR
STARTCHAR lcaron
ENCODING 181
SWIDTH 473 0
DWIDTH 9 0
BBX 9 15 2 0
BITMAP
0180
1980
1980
1180
3300
3000
3000
3000
6000
6000
6000
6000
4000
c000
c000
ENDCHAR
STARTCHAR sacute
ENCODING 182
SWIDTH 489 0
DWIDTH 9 0
BBX 10 14 2 0
BITMAP
01c0
0300
0600
0000
1e00
3f00
3100
3000
1800
0c00
0600
8600
fe00
7c00
ENDCHAR
STARTCHAR caron
ENCODING 183
SWIDTH 568 0
DWIDTH 11 0
BBX 6 3 6 11
BITMAP
cc
58
70
ENDCHAR
STARTCHAR cedilla
ENCODING 184
SWIDTH 566 0
DWIDTH 11 0
BBX 3 4 4 -4
BITMAP
60
60
20
c0
ENDCHAR
STARTCHAR scaron
ENCODING 185
SWIDTH 489 0
DWIDTH 9 0
BBX 9 14 2 0
BITMAP
1980
0b00
0e00
0000
1e00
3f00
3100
3000
1800
0c00
0600
8600
fe00
7c00
ENDCHAR
STARTCHAR scedilla
ENCODING 186
SWIDTH 489 0
DWIDTH 9 0
BBX 8 14 2 -4
BITMAP
1e
3f
31
30
18
0c
06
86
fe
7c
18
18
08
30
ENDCHAR
STARTCHAR tcaron
ENCODING 187
SWIDTH 473 0
DWIDTH 9 0
BBX 8 16 2 0
BITMAP
03
03
03
33
36
30
fc
fc
60
60
60
60
40
c0
f0
70
ENDCHAR
STARTCHAR zacute
ENCODING 188
SWIDTH 536 0
DWIDTH 10 0
BBX 11 14 1 0
BITMAP
00e0
0180
0300
0000
3fc0
3fc0
0380
0700
0e00
1c00
3800
7000
ff80
ff80
ENDCHAR
STARTCHAR doubleacute
ENCODING 189
SWIDTH 566 0
DWIDTH 11 0
BBX 6 3 6 11
BITMAP
3c
78
f0
ENDCHAR
STARTCHAR zcaron
ENCODING 190
SWIDTH 536 0
DWIDTH 10 0
BBX 10 14 1 0
BITMAP
0cc0
0580
0700
0000
3fc0
3fc0
0380
0700
0e00
1c00
3800
7000
ff80
ff80
ENDCHAR
STARTCHAR zabovedot
ENCODING 191
SWIDTH 536 0
DWIDTH 10 0
BBX 10 13 1 0
BITMAP
0300
0300
0000
3fc0
3fc0
0380
0700
0e00
1c00
3800
7000
ff80
ff80
ENDCHAR
STARTCHAR Racute
ENCODING 192
SWIDTH 632 0
DWIDTH 12 0
BBX 11 18 2 0
BITMAP
00e0
0180
0300
0000
1f80
3fc0
30c0
30c0
30c0
3180
6300
7c00
7e00
6600
6300
c300
c180
c1c0
ENDCHAR
STARTCHAR Aacute
ENCODING 193
SWIDTH 687 0
DWIDTH 13 0
BBX 13 18 0 0
BITMAP
0038
0060
00c0
0000
00c0
01e0
01e0
0360
0260
0660
0c70
0c30
1830
1ff0
3ff0
2038
6018
c018
ENDCHAR
STARTCHAR Acircumflex
ENCODING 194
SWIDTH 687 0
DWIDTH 13 0
BBX 13 18 0 0
BITMAP
00e0
01a0
0330
0000
00c0
01e0
01e0
0360
0260
0660
0c70
0c30
1830
1ff0
3ff0
2038
6018
c018
ENDCHAR
STARTCHAR Abreve
ENCODING 195
SWIDTH 687 0
DWIDTH 13 0
BBX 13 18 0 0
BITMAP
0108
0190
00e0
0000
00c0
01e0
01e0
0360
0260
0660
0c70
0c30
1830
1ff0
3ff0
2038
6018
c018
ENDCHAR
STARTCHAR Adiaeresis
ENCODING 196
SWIDTH 687 0
DWIDTH 13 0
BBX 13 17 0 0
BITMAP
0330
0330
0000
00c0
01e0
01e0
0360
0260
0660
0c70
0c30
1830
1ff0
3ff0
2038
6018
c018
ENDCHAR
STARTCHAR Lacute
ENCODING 197
SWIDTH 545 0
DWIDTH 10 0
BBX 9 18 2 0
BITMAP
0700
0c00
1800
0000
1800
1800
3000
3000
3000
3000
2000
6000
6000
6000
6000
4000
ff80
ff80
ENDCHAR
STARTCHAR Cacute
ENCODING 198
SWIDTH 679 0
DWIDTH 13 0
BBX 13 18 2 0
BITMAP
0038
0060
00c0
0000
03f0
0ff8
1c08
3800
7000
6000
e000
c000
c000
c000
c000
6020
7fe0
1f00
ENDCHAR
STARTCHAR Ccedilla
ENCODING 199
SWIDTH 679 0
DWIDTH 13 0
BBX 13 18 2 -4
BITMAP
03f0
0ff8
1c08
3800
7000
6000
e000
c000
c000
c000
c000
6020
7fe0
1f00
0800
0c00
0400
1800
ENDCHAR
STARTCHAR Ccaron
ENCODING 200
SWIDTH 679 0
DWIDTH 13 0
BBX 13 18 2 0
BITMAP
0330
0160
01c0
0000
03f0
0ff8
1c08
3800
7000
6000
e000
c000
c000
c000
c000
6020
7fe0
1f00
ENDCHAR
STARTCHAR Eacute
ENCODING 201
SWIDTH 547 0
DWIDTH 10 0
BBX 10 18 2 0
BITMAP
0380
0600
0c00
0000
1fc0
3fc0
3000
3000
3000
2000
7f00
7f00
6000
6000
6000
c000
ff00
ff00
ENDCHAR
STARTCHAR Eogonek
ENCODING 202
SWIDTH 547 0
DWIDTH 10 0
BBX 10 17 2 -3
BITMAP
1fc0
3fc0
3000
3000
3000
2000
7f00
7f00
6000
6000
6000
c000
ff00
ff00
0c00
1000
1c00
ENDCHAR
STARTCHAR Ediaeresis
ENCODING 203
SWIDTH 547 0
DWIDTH 10 0
BBX 10 17 2 0
BITMAP
1980
1980
0000
1fc0
3fc0
3000
3000
3000
2000
7f00
7f00
6000
6000
6000
c000
ff00
ff00
ENDCHAR
STARTCHAR Ecaron
ENCODING 204
SWIDTH 547 0
DWIDTH 10 0
BBX 10 18 2 0
BITMAP
0cc0
0580
0700
0000
1fc0
3fc0
3000
3000
3000
2000
7f00
7f00
6000
6000
6000
c000
ff00
ff00
ENDCHAR
STARTCHAR Iacute
ENCODING 205
SWIDTH 289 0
DWIDTH 5 0
BBX 7 18 2 0
BITMAP
0e
18
30
00
18
18
10
30
30
30
30
60
60
60
60
40
c0
c0
ENDCHAR
STARTCHAR Icircumflex
ENCODING 206
SWIDTH 289 0
DWIDTH 5 0
BBX 7 18 2 0
BITMAP
1c
34
66
00
18
18
10
30
30
30
30
60
60
60
60
40
c0
c0
ENDCHAR
STARTCHAR Dcaron
ENCODING 207
SWIDTH 743 0
DWIDTH 14 0
BBX 13 18 2 0
BITMAP
0660
02c0
0380
0000
1fe0
3ff0
3078
3018
3018
3018
6018
6018
6030
6030
6060
c1e0
ffc0
ff00
ENDCHAR
STARTCHAR Dstroke
ENCODING 208
SWIDTH 743 0
DWIDTH 14 0
BBX 14 14 1 0
BITMAP
1ff0
1ff8
183c
180c
180c
300c
fe0c
fe0c
3018
3018
2030
60e0
7fc0
7f80
ENDCHAR
STARTCHAR Nacute
ENCODING 209
SWIDTH 741 0
DWIDTH 14 0
BBX 13 18 2 0
BITMAP
0070
00c0
0180
0000
1818
3818
3c18
3c10
2c30
2630
6630
6330
6320
61a0
41e0
c1e0
c0e0
c0c0
ENDCHAR
STARTCHAR Ncaron
ENCODING 210
SWIDTH 741 0
DWIDTH 14 0
BBX 13 18 2 0
BITMAP
0660
02c0
0380
0000
1818
3818
3c18
3c10
2c30
2630
6630
6330
6320
61a0
41e0
c1e0
c0e0
c0c0
ENDCHAR
STARTCHAR Oacute
ENCODING 211
SWIDTH 777 0
DWIDTH 15 0
BBX 13 18 2 0
BITMAP
00e0
0180
0300
0000
03e0
0ff0
1c38
3018
7018
6018
c018
c018
c018
c030
e070
60e0
7fc0
1f00
ENDCHAR
STARTCHAR Ocircumflex
ENCODING 212
SWIDTH 777 0
DWIDTH 15 0
BBX 13 18 2 0
BITMAP
01c0
0340
0660
0000
03e0
0ff0
1c38
3018
7018
6018
c018
c018
c018
c030
e070
60e0
7fc0
1f00
ENDCHAR
STARTCHAR Odoubleacute
ENCODING 213
SWIDTH 777 0
DWIDTH 15 0
BBX 13 18 2 0
BITMAP
0078
00f0
01e0
0000
03e0
0ff0
1c38
3018
7018
6018
c018
c018
c018
c030
e070
60e0
7fc0
1f00
ENDCHAR
STARTCHAR Odiaeresis
ENCODING 214
SWIDTH 777 0
DWIDTH 15 0
BBX 13 17 2 0
BITMAP
0660
0660
0000
03e0
0ff0
1c38
3018
7018
6018
c018
c018
c018
c030
e070
60e0
7fc0
1f00
ENDCHAR
STARTCHAR multiply
ENCODING 215
SWIDTH 633 0
DWIDTH 12 0
BBX 13 12 1 0
BITMAP
2008
3018
1860
0cc0
0580
0700
0700
0f80
19c0
30c0
e060
8060
ENDCHAR
STARTCHAR Rcaron
ENCODING 216
SWIDTH 632 0
DWIDTH 12 0
BBX 10 18 2 0
BITMAP
0cc0
0580
0700
0000
1f80
3fc0
30c0
30c0
30c0
3180
6300
7c00
7e00
6600
6300
c300
c180
c1c0
ENDCHAR
STARTCHAR Uring
ENCODING 217
SWIDTH 693 0
DWIDTH 13 0
BBX 12 18 2 0
BITMAP
0700
0500
0700
0000
3030
3030
6030
6020
6060
6060
6060
c060
c0c0
c0c0
c0c0
e180
ff80
7e00
ENDCHAR
STARTCHAR Uacute
ENCODING 218
SWIDTH 693 0
DWIDTH 13 0
BBX 12 18 2 0
BITMAP
01c0
0300
0600
0000
3030
3030
6030
6020
6060
6060
6060
c060
c0c0
c0c0
c0c0
e180
ff80
7e00
ENDCHAR
STARTCHAR Udoubleacute
ENCODING 219
SWIDTH 693 0
DWIDTH 13 0
BBX 12 18 2 0
BITMAP
01e0
03c0
0780
0000
3030
3030
6030
6020
6060
6060
6060
c060
c0c0
c0c0
c0c0
e180
ff80
7e00
ENDCHAR
STARTCHAR Udiaeresis
ENCODING 220
SWIDTH 693 0
DWIDTH 13 0
BBX 12 17 2 0
BITMAP
0cc0
0cc0
0000
3030
3030
6030
6020
6060
6060
6060
c060
c0c0
c0c0
c0c0
e180
ff80
7e00
ENDCHAR
STARTCHAR Yacute
ENCODING 221
SWIDTH 608 0
DWIDTH 12 0
BBX 11 18 3 0
BITMAP
0380
0600
0c00
0000
c0e0
60c0
6180
7380
3700
3600
1c00
1800
1800
1800
1800
3000
3000
3000
ENDCHAR
STARTCHAR Tcedilla
ENCODING 222
SWIDTH 623 0
DWIDTH 12 0
BBX 12 18 3 -4
BITMAP
fff0
fff0
0600
0600
0c00
0c00
0c00
0c00
0800
1800
1800
1800
1800
3000
0600
0600
0200
0c00
ENDCHAR
STARTCHAR ssharp
ENCODING 223
SWIDTH 595 0
DWIDTH 11 0
BBX 10 19 1 -4
BITMAP
0780
0fc0
18c0
1880
1980
1200
3600
3600
3700
3380
20c0
60c0
60c0
6fc0
6f00
4000
c000
c000
c000
ENDCHAR
STARTCHAR racute
ENCODING 224
SWIDTH 478 0
DWIDTH 9 0
BBX 10 14 2 0
BITMAP
01c0
0300
0600
0000
3180
3780
2c00
7800
7800
7000
6000
4000
c000
c000
ENDCHAR
STARTCHAR aacute
ENCODING 225
SWIDTH 608 0
DWIDTH 12 0
BBX 10 14 2 0
BITMAP
01c0
0300
0600
0000
0fc0
1fc0
38c0
7180
6180
c380
c780
cf80
fd00
7300
ENDCHAR
STARTCHAR acircumflex
ENCODING 226
SWIDTH 608 0
DWIDTH 12 0
BBX 10 14 2 0
BITMAP
0380
0680
0cc0
0000
0fc0
1fc0
38c0
7180
6180
c380
c780
cf80
fd00
7300
ENDCHAR
STARTCHAR abreve
ENCODING 227
SWIDTH 608 0
DWIDTH 12 0
BBX 10 14 2 0
BITMAP
0840
0c80
0700
0000
0fc0
1fc0
38c0
7180
6180
c380
c780
cf80
fd00
7300
ENDCHAR
STARTCHAR adiaeresis
ENCODING 228
SWIDTH 608 0
DWIDTH 12 0
BBX 10 13 2 0
BITMAP
0cc0
0cc0
0000
0fc0
1fc0
38c0
7180
6180
c380
c780
cf80
fd00
7300
ENDCHAR
STARTCHAR lacute
ENCODING 229
SWIDTH 289 0
DWIDTH 5 0
BBX 9 18 2 0
BITMAP
0380
0600
0c00
0000
1800
1800
1000
3000
3000
3000
3000
6000
6000
6000
6000
4000
c000
c000
ENDCHAR
STARTCHAR cacute
ENCODING 230
SWIDTH 503 0
DWIDTH 10 0
BBX 10 14 2 0
BITMAP
01c0
0300
0600
0000
0f80
3f00
7000
6000
c000
c000
c000
c200
fe00
7c00
ENDCHAR
STARTCHAR ccedilla
ENCODING 231
SWIDTH 503 0
DWIDTH 10 0
BBX 9 14 2 -4
BITMAP
0f80
3f00
7000
6000
c000
c000
c000
c200
fe00
7c00
2000
3000
1000
6000
ENDCHAR
STARTCHAR ccaron
ENCODING 232
SWIDTH 503 0
DWIDTH 10 0
BBX 9 14 2 0
BITMAP
1980
0b00
0e00
0000
0f80
3f00
7000
6000
c000
c000
c000
c200
fe00
7c00
ENDCHAR
STARTCHAR eacute
ENCODING 233
SWIDTH 529 0
DWIDTH 10 0
BBX 9 14 2 0
BITMAP
0380
0600
0c00
0000
0f00
3f00
7300
6300
c600
f800
c100
c300
ff00
7c00
ENDCHAR
STARTCHAR eogonek
ENCODING 234
SWIDTH 529 0
DWIDTH 10 0
BBX 8 13 2 -3
BITMAP
0f
3f
73
63
c6
f8
c1
c3
ff
7c
18
20
38
ENDCHAR
STARTCHAR ediaeresis
ENCODING 235
SWIDTH 529 0
DWIDTH 10 0
BBX 9 13 2 0
BITMAP
1980
1980
0000
0f00
3f00
7300
6300
c600
f800
c100
c300
ff00
7c00
ENDCHAR
STARTCHAR ecaron
ENCODING 236
SWIDTH 529 0
DWIDTH 10 0
BBX 9 14 2 0
BITMAP
1980
0b00
0e00
0000
0f00
3f00
7300
6300
c600
f800
c100
c300
ff00
7c00
ENDCHAR
STARTCHAR iacute
ENCODING 237
SWIDTH 289 0
DWIDTH 5 0
BBX 7 14 2 0
BITMAP
0e
18
30
00
30
30
20
60
60
60
60
40
c0
c0
ENDCHAR
STARTCHAR icircumflex
ENCODING 238
SWIDTH 289 0
DWIDTH 5 0
BBX 7 14 2 0
BITMAP
1c
34
66
00
30
30
20
60
60
60
60
40
c0
c0
ENDCHAR
STARTCHAR dcaron
ENCODING 239
SWIDTH 842 0
DWIDTH 16 0
BBX 15 15 2 0
BITMAP
0006
0066
0066
0046
00cc
07c0
1fc0
38c0
7080
6180
c380
c780
cf80
fd00
7300
ENDCHAR
STARTCHAR dstroke
ENCODING 240
SWIDTH 842 0
DWIDTH 16 0
BBX 15 14 2 0
BITMAP
0060
0020
0ffe
00c0
07c0
1fc0
38c0
7080
6180
c380
c780
cf80
fd00
7300
ENDCHAR
STARTCHAR nacute
ENCODING 241
SWIDTH 620 0
DWIDTH 12 0
BBX 11 14 2 0
BITMAP
00e0
0180
0300
0000
3380
37c0
2ec0
7cc0
78c0
7080
6180
4180
c180
c180
ENDCHAR
STARTCHAR ncaron
ENCODING 242
SWIDTH 620 0
DWIDTH 12 0
BBX 10 14 2 0
BITMAP
0cc0
0580
0700
0000
3380
37c0
2ec0
7cc0
78c0
7080
6180
4180
c180
c180
ENDCHAR
STARTCHAR oacute
ENCODING 243
SWIDTH 566 0
DWIDTH 11 0
BBX 10 14 2 0
BITMAP
01c0
0300
0600
0000
0f00
3f80
7180
6180
c180
c180
c180
c700
fe00
7c00
ENDCHAR
STARTCHAR ocircumflex
ENCODING 244
SWIDTH 566 0
DWIDTH 11 0
BBX 9 14 2 0
BITMAP
0700
0d00
1980
0000
0f00
3f80
7180
6180
c180
c180
c180
c700
fe00
7c00
ENDCHAR
STARTCHAR odoubleacute
ENCODING 245
SWIDTH 566 0
DWIDTH 11 0
BBX 10 14 2 0
BITMAP
03c0
0780
0f00
0000
0f00
3f80
7180
6180
c180
c180
c180
c700
fe00
7c00
ENDCHAR
STARTCHAR odiaeresis
ENCODING 246
SWIDTH 566 0
DWIDTH 11 0
BBX 10 13 2 0
BITMAP
0cc0
0cc0
0000
0f00
3f80
7180
6180
c180
c180
c180
c700
fe00
7c00
ENDCHAR
STARTCHAR division
ENCODING 247
SWIDTH 633 0
DWIDTH 12 0
BBX 11 10 2 0
BITMAP
0600
0600
0000
0000
ffe0
ffe0
0000
0000
0c00
0c00
ENDCHAR
STARTCHAR rcaron
ENCODING 248
SWIDTH 478 0
DWIDTH 9 0
BBX 9 14 2 0
BITMAP
1980
0b00
0e00
0000
3180
3780
2c00
7800
7800
7000
6000
4000
c000
c000
ENDCHAR
STARTCHAR uring
ENCODING 249
SWIDTH 620 0
DWIDTH 12 0
BBX 10 14 2 0
BITMAP
0e00
0a00
0e00
0000
70c0
60c0
6080
6180
6380
c780
cf80
dd00
fb00
7300
ENDCHAR
STARTCHAR uacute
ENCODING 250
SWIDTH 620 0
DWIDTH 12 0
BBX 10 14 2 0
BITMAP
01c0
0300
0600
0000
70c0
60c0
6080
6180
6380
c780
cf80
dd00
fb00
7300
ENDCHAR
STARTCHAR udoubleacute
ENCODING 251
SWIDTH 620 0
DWIDTH 12 0
BBX 10 14 2 0
BITMAP
03c0
0780
0f00
0000
70c0
60c0
6080
6180
6380
c780
cf80
dd00
fb00
7300
ENDCHAR
STARTCHAR udiaeresis
ENCODING 252
SWIDTH 620 0
DWIDTH 12 0
BBX 10 13 2 0
BITMAP
0cc0
0cc0
0000
70c0
60c0
6080
6180
6380
c780
cf80
dd00
fb00
7300
ENDCHAR
STARTCHAR yacute
ENCODING 253
SWIDTH 548 0
DWIDTH 10 0
BBX 10 18 2 -4
BITMAP
0380
0600
0c00
0000
60c0
6180
6180
6300
6700
6600
3e00
3c00
3800
3800
3000
3000
6000
c000
ENDCHAR
STARTCHAR tcedilla
ENCODING 254
SWIDTH 383 0
DWIDTH 7 0
BBX 6 17 2 -4
BITMAP
30
30
30
fc
fc
60
60
60
60
40
c0
f0
70
30
30
10
60
ENDCHAR
STARTCHAR abovedot
ENCODING 255
SWIDTH 566 0
DWIDTH 11 0
BBX 2 2 7 12
BITMAP
c0
c0
ENDCHAR
ENDFONT
